<svg width="30" height="30" viewBox="0 0 30 30" fill="none" xmlns="http://www.w3.org/2000/svg">
<path d="M28.5 6H22.5V4.5C22.5 3.30653 22.0259 2.16193 21.182 1.31802C20.3381 0.474106 19.1935 0 18 0H12C10.8065 0 9.66193 0.474106 8.81802 1.31802C7.97411 2.16193 7.5 3.30653 7.5 4.5V6H1.5C1.10218 6 0.720644 6.15804 0.43934 6.43934C0.158035 6.72065 0 7.10218 0 7.5V13.5C0.00337745 14.1291 0.138613 14.7504 0.39698 15.324C0.655347 15.8976 1.0311 16.4106 1.5 16.83V25.5C1.5 26.6935 1.97411 27.8381 2.81802 28.682C3.66193 29.5259 4.80653 30 6 30H24C25.1935 30 26.3381 29.5259 27.182 28.682C28.0259 27.8381 28.5 26.6935 28.5 25.5V16.83C28.9689 16.4106 29.3447 15.8976 29.603 15.324C29.8614 14.7504 29.9966 14.1291 30 13.5V7.5C30 7.10218 29.842 6.72065 29.5607 6.43934C29.2794 6.15804 28.8978 6 28.5 6ZM10.5 4.5C10.5 4.10218 10.658 3.72064 10.9393 3.43934C11.2206 3.15804 11.6022 3 12 3H18C18.3978 3 18.7794 3.15804 19.0607 3.43934C19.342 3.72064 19.5 4.10218 19.5 4.5V6H10.5V4.5ZM25.5 25.5C25.5 25.8978 25.342 26.2794 25.0607 26.5607C24.7794 26.842 24.3978 27 24 27H6C5.60218 27 5.22064 26.842 4.93934 26.5607C4.65804 26.2794 4.5 25.8978 4.5 25.5V18H7.5V19.5C7.5 19.8978 7.65804 20.2794 7.93934 20.5607C8.22064 20.842 8.60218 21 9 21C9.39783 21 9.77936 20.842 10.0607 20.5607C10.342 20.2794 10.5 19.8978 10.5 19.5V18H19.5V19.5C19.5 19.8978 19.658 20.2794 19.9393 20.5607C20.2206 20.842 20.6022 21 21 21C21.3978 21 21.7794 20.842 22.0607 20.5607C22.342 20.2794 22.5 19.8978 22.5 19.5V18H25.5V25.5ZM27 13.5C27 13.8978 26.842 14.2794 26.5607 14.5607C26.2794 14.842 25.8978 15 25.5 15H22.5V13.5C22.5 13.1022 22.342 12.7206 22.0607 12.4393C21.7794 12.158 21.3978 12 21 12C20.6022 12 20.2206 12.158 19.9393 12.4393C19.658 12.7206 19.5 13.1022 19.5 13.5V15H10.5V13.5C10.5 13.1022 10.342 12.7206 10.0607 12.4393C9.77936 12.158 9.39783 12 9 12C8.60218 12 8.22064 12.158 7.93934 12.4393C7.65804 12.7206 7.5 13.1022 7.5 13.5V15H4.5C4.10218 15 3.72064 14.842 3.43934 14.5607C3.15804 14.2794 3 13.8978 3 13.5V9H27V13.5Z" fill="#2E90D1"/>
</svg>
