<svg width="24" height="30" viewBox="0 0 24 30" fill="none" xmlns="http://www.w3.org/2000/svg">
<path d="M12 0C8.8174 0 5.76516 1.26428 3.51472 3.51472C1.26428 5.76516 0 8.8174 0 12C0 20.1 10.575 29.25 11.025 29.64C11.2967 29.8724 11.6425 30.0001 12 30.0001C12.3575 30.0001 12.7033 29.8724 12.975 29.64C13.5 29.25 24 20.1 24 12C24 8.8174 22.7357 5.76516 20.4853 3.51472C18.2348 1.26428 15.1826 0 12 0V0ZM12 26.475C8.805 23.475 3 17.01 3 12C3 9.61305 3.94821 7.32387 5.63604 5.63604C7.32387 3.94821 9.61305 3 12 3C14.3869 3 16.6761 3.94821 18.364 5.63604C20.0518 7.32387 21 9.61305 21 12C21 17.01 15.195 23.49 12 26.475ZM12 6C10.8133 6 9.65327 6.35189 8.66658 7.01118C7.67988 7.67047 6.91085 8.60754 6.45672 9.7039C6.0026 10.8003 5.88378 12.0067 6.11529 13.1705C6.3468 14.3344 6.91824 15.4035 7.75736 16.2426C8.59647 17.0818 9.66557 17.6532 10.8295 17.8847C11.9933 18.1162 13.1997 17.9974 14.2961 17.5433C15.3925 17.0892 16.3295 16.3201 16.9888 15.3334C17.6481 14.3467 18 13.1867 18 12C18 10.4087 17.3679 8.88258 16.2426 7.75736C15.1174 6.63214 13.5913 6 12 6ZM12 15C11.4067 15 10.8266 14.8241 10.3333 14.4944C9.83994 14.1648 9.45542 13.6962 9.22836 13.148C9.0013 12.5999 8.94189 11.9967 9.05764 11.4147C9.1734 10.8328 9.45912 10.2982 9.87868 9.87868C10.2982 9.45912 10.8328 9.1734 11.4147 9.05764C11.9967 8.94189 12.5999 9.0013 13.148 9.22836C13.6962 9.45542 14.1648 9.83994 14.4944 10.3333C14.8241 10.8266 15 11.4067 15 12C15 12.7956 14.6839 13.5587 14.1213 14.1213C13.5587 14.6839 12.7956 15 12 15Z" fill="#FFB800"/>
</svg>
