<svg width="30" height="30" viewBox="0 0 30 30" fill="none" xmlns="http://www.w3.org/2000/svg">
<path d="M22.5 7.5H7.5C7.10217 7.5 6.72064 7.65804 6.43934 7.93934C6.15804 8.22064 6 8.60218 6 9C6 9.39782 6.15804 9.77936 6.43934 10.0607C6.72064 10.342 7.10217 10.5 7.5 10.5H22.5C22.8978 10.5 23.2794 10.342 23.5607 10.0607C23.842 9.77936 24 9.39782 24 9C24 8.60218 23.842 8.22064 23.5607 7.93934C23.2794 7.65804 22.8978 7.5 22.5 7.5ZM22.5 13.5H7.5C7.10217 13.5 6.72064 13.658 6.43934 13.9393C6.15804 14.2206 6 14.6022 6 15C6 15.3978 6.15804 15.7794 6.43934 16.0607C6.72064 16.342 7.10217 16.5 7.5 16.5H22.5C22.8978 16.5 23.2794 16.342 23.5607 16.0607C23.842 15.7794 24 15.3978 24 15C24 14.6022 23.842 14.2206 23.5607 13.9393C23.2794 13.658 22.8978 13.5 22.5 13.5ZM25.5 0H4.5C3.30653 0 2.16193 0.474106 1.31802 1.31802C0.474106 2.16193 0 3.30653 0 4.5V19.5C0 20.6935 0.474106 21.8381 1.31802 22.682C2.16193 23.5259 3.30653 24 4.5 24H21.885L27.435 29.565C27.5752 29.704 27.7414 29.814 27.9241 29.8887C28.1069 29.9633 28.3026 30.0011 28.5 30C28.6968 30.0051 28.892 29.964 29.07 29.88C29.3439 29.7675 29.5784 29.5764 29.7439 29.3308C29.9094 29.0852 29.9985 28.7961 30 28.5V4.5C30 3.30653 29.5259 2.16193 28.682 1.31802C27.8381 0.474106 26.6935 0 25.5 0ZM27 24.885L23.565 21.435C23.4248 21.296 23.2586 21.186 23.0759 21.1113C22.8931 21.0367 22.6974 20.9989 22.5 21H4.5C4.10217 21 3.72064 20.842 3.43934 20.5607C3.15804 20.2794 3 19.8978 3 19.5V4.5C3 4.10218 3.15804 3.72064 3.43934 3.43934C3.72064 3.15804 4.10217 3 4.5 3H25.5C25.8978 3 26.2794 3.15804 26.5607 3.43934C26.842 3.72064 27 4.10218 27 4.5V24.885Z" fill="#E42125"/>
</svg>
