<svg width="36" height="28" viewBox="0 0 36 28" fill="none" xmlns="http://www.w3.org/2000/svg">
<path d="M34.8168 9.9833L33.1501 9.06663L18.1501 0.733301H17.9668C17.8646 0.690099 17.7586 0.656618 17.6501 0.633301H17.3335H17.0335C16.9196 0.656633 16.808 0.690099 16.7001 0.733301H16.5168L1.51679 9.06663C1.26029 9.212 1.04695 9.4228 0.898513 9.67753C0.75008 9.93226 0.671875 10.2218 0.671875 10.5166C0.671875 10.8115 0.75008 11.101 0.898513 11.3557C1.04695 11.6105 1.26029 11.8213 1.51679 11.9666L5.66679 14.2666V22.1666C5.66679 23.4927 6.19357 24.7645 7.13126 25.7022C8.06894 26.6399 9.34071 27.1666 10.6668 27.1666H24.0001C25.3262 27.1666 26.598 26.6399 27.5357 25.7022C28.4733 24.7645 29.0001 23.4927 29.0001 22.1666V14.2666L32.3335 12.4V17.1666C32.3335 17.6087 32.5091 18.0326 32.8216 18.3451C33.1342 18.6577 33.5581 18.8333 34.0001 18.8333C34.4422 18.8333 34.8661 18.6577 35.1786 18.3451C35.4912 18.0326 35.6668 17.6087 35.6668 17.1666V11.4333C35.6663 11.138 35.5873 10.8481 35.438 10.5933C35.2886 10.3385 35.0742 10.128 34.8168 9.9833ZM25.6668 22.1666C25.6668 22.6087 25.4912 23.0326 25.1786 23.3451C24.8661 23.6577 24.4422 23.8333 24.0001 23.8333H10.6668C10.2248 23.8333 9.80084 23.6577 9.48828 23.3451C9.17572 23.0326 9.00012 22.6087 9.00012 22.1666V16.1166L16.5168 20.2833L16.7668 20.3833H16.9168C17.0551 20.4007 17.1951 20.4007 17.3335 20.3833C17.4718 20.4007 17.6118 20.4007 17.7501 20.3833H17.9001C17.9886 20.3646 18.0732 20.3308 18.1501 20.2833L25.6668 16.1166V22.1666ZM17.3335 16.9333L5.76679 10.5L17.3335 4.06663L28.9001 10.5L17.3335 16.9333Z" fill="#2E90D1"/>
</svg>
