<svg width="30" height="30" viewBox="0 0 30 30" fill="none" xmlns="http://www.w3.org/2000/svg">
<path d="M12.435 14.565C12.5744 14.7056 12.7403 14.8172 12.9231 14.8933C13.1059 14.9695 13.302 15.0087 13.5 15.0087C13.698 15.0087 13.8941 14.9695 14.0769 14.8933C14.2597 14.8172 14.4256 14.7056 14.565 14.565L20.565 8.565C20.7049 8.42514 20.8158 8.25911 20.8915 8.07637C20.9672 7.89364 21.0061 7.69779 21.0061 7.5C21.0061 7.30221 20.9672 7.10636 20.8915 6.92363C20.8158 6.74089 20.7049 6.57486 20.565 6.435C20.4251 6.29514 20.2591 6.1842 20.0764 6.10851C19.8936 6.03282 19.6978 5.99386 19.5 5.99386C19.3022 5.99386 19.1064 6.03282 18.9236 6.10851C18.7409 6.1842 18.5749 6.29514 18.435 6.435L13.5 11.385L11.565 9.435C11.2825 9.15254 10.8995 8.99386 10.5 8.99386C10.1005 8.99386 9.71746 9.15254 9.435 9.435C9.15254 9.71746 8.99386 10.1005 8.99386 10.5C8.99386 10.8995 9.15254 11.2825 9.435 11.565L12.435 14.565ZM28.5 18H27V3H28.5C28.8978 3 29.2794 2.84196 29.5607 2.56066C29.842 2.27936 30 1.89782 30 1.5C30 1.10218 29.842 0.720644 29.5607 0.43934C29.2794 0.158035 28.8978 0 28.5 0H1.5C1.10218 0 0.720644 0.158035 0.43934 0.43934C0.158035 0.720644 0 1.10218 0 1.5C0 1.89782 0.158035 2.27936 0.43934 2.56066C0.720644 2.84196 1.10218 3 1.5 3H3V18H1.5C1.10218 18 0.720644 18.158 0.43934 18.4393C0.158035 18.7206 0 19.1022 0 19.5C0 19.8978 0.158035 20.2794 0.43934 20.5607C0.720644 20.842 1.10218 21 1.5 21H13.5V22.725L6.675 27.225C6.395 27.3983 6.17982 27.659 6.06265 27.9667C5.94549 28.2745 5.93285 28.6122 6.02669 28.9279C6.12053 29.2435 6.31564 29.5195 6.5819 29.7133C6.84816 29.907 7.17079 30.0078 7.5 30C7.7949 30.0034 8.08344 29.9142 8.325 29.745L13.5 26.325V28.5C13.5 28.8978 13.658 29.2794 13.9393 29.5607C14.2206 29.842 14.6022 30 15 30C15.3978 30 15.7794 29.842 16.0607 29.5607C16.342 29.2794 16.5 28.8978 16.5 28.5V26.325L21.675 29.745C21.9166 29.9142 22.2051 30.0034 22.5 30C22.8205 29.9975 23.1317 29.8925 23.3882 29.7002C23.6446 29.508 23.8327 29.2387 23.9249 28.9318C24.0172 28.6249 24.0087 28.2965 23.9007 27.9947C23.7928 27.693 23.591 27.4337 23.325 27.255L16.5 22.755V21H28.5C28.8978 21 29.2794 20.842 29.5607 20.5607C29.842 20.2794 30 19.8978 30 19.5C30 19.1022 29.842 18.7206 29.5607 18.4393C29.2794 18.158 28.8978 18 28.5 18ZM24 18H6V3H24V18Z" fill="#78258D"/>
</svg>
