<svg width="36" height="36" viewBox="0 0 36 36" fill="none" xmlns="http://www.w3.org/2000/svg">
<path d="M5.43017 25.92C5.57736 26.29 5.8655 26.5863 6.2312 26.7439C6.59689 26.9014 7.01019 26.9072 7.38017 26.76C7.75015 26.6128 8.0465 26.3247 8.20403 25.959C8.36156 25.5933 8.36736 25.18 8.22017 24.81L6.54017 20.58L16.5002 18.375V25.5C16.5002 25.8978 16.6582 26.2794 16.9395 26.5607C17.2208 26.842 17.6023 27 18.0002 27C18.398 27 18.7795 26.842 19.0608 26.5607C19.3421 26.2794 19.5002 25.8978 19.5002 25.5V18.375L29.4602 20.58L27.7802 24.81C27.7071 24.9932 27.6709 25.189 27.6736 25.3862C27.6762 25.5833 27.7178 25.7781 27.7958 25.9592C27.8738 26.1403 27.9868 26.3043 28.1282 26.4417C28.2697 26.5791 28.4369 26.6873 28.6202 26.76C28.7968 26.8298 28.9852 26.8655 29.1752 26.865C29.4756 26.8653 29.7692 26.7754 30.0179 26.6069C30.2666 26.4384 30.459 26.1991 30.5702 25.92L32.8952 20.055C32.975 19.8521 33.0096 19.6343 32.9967 19.4167C32.9837 19.1991 32.9235 18.987 32.8202 18.795C32.7199 18.6037 32.5796 18.4364 32.4087 18.3044C32.2379 18.1723 32.0405 18.0787 31.8302 18.03L27.0002 16.965V10.5C27.0002 10.1022 26.8421 9.72064 26.5608 9.43934C26.2795 9.15804 25.898 9 25.5002 9H22.5002V4.5C22.5002 4.10218 22.3421 3.72064 22.0608 3.43934C21.7795 3.15804 21.398 3 21.0002 3H15.0002C14.6023 3 14.2208 3.15804 13.9395 3.43934C13.6582 3.72064 13.5002 4.10218 13.5002 4.5V9H10.5002C10.1023 9 9.72081 9.15804 9.43951 9.43934C9.1582 9.72064 9.00017 10.1022 9.00017 10.5V16.965L4.17017 18C3.95981 18.0487 3.76246 18.1423 3.5916 18.2744C3.42074 18.4064 3.2804 18.5737 3.18017 18.765C3.07686 18.957 3.01664 19.1691 3.00368 19.3867C2.99073 19.6043 3.02536 19.8221 3.10517 20.025L5.43017 25.92ZM16.5002 6H19.5002V9H16.5002V6ZM12.0002 12H24.0002V16.29L18.3302 15H18.1802H18.0002H17.8202H17.6702L12.0002 16.29V12ZM31.0652 28.92C30.5389 29.0813 30.0349 29.3081 29.5652 29.595C29.0873 29.8744 28.5437 30.0217 27.9902 30.0217C27.4366 30.0217 26.893 29.8744 26.4152 29.595C25.3761 29.0088 24.2032 28.7008 23.0102 28.7008C21.8171 28.7008 20.6443 29.0088 19.6052 29.595C19.1208 29.8712 18.5728 30.0165 18.0152 30.0165C17.4576 30.0165 16.9096 29.8712 16.4252 29.595C15.3851 29.0116 14.2127 28.7052 13.0202 28.7052C11.8277 28.7052 10.6552 29.0116 9.61517 29.595C9.13732 29.8744 8.59373 30.0217 8.04017 30.0217C7.48661 30.0217 6.94302 29.8744 6.46517 29.595C5.99542 29.3081 5.49147 29.0813 4.96517 28.92C4.76558 28.849 4.55323 28.8212 4.34209 28.8382C4.13095 28.8552 3.92581 28.9168 3.74017 29.0188C3.55454 29.1208 3.39262 29.261 3.26507 29.4301C3.13752 29.5993 3.04724 29.7935 3.00017 30C2.88819 30.3799 2.93101 30.7887 3.11929 31.1371C3.30757 31.4856 3.62602 31.7455 4.00517 31.86C4.30721 31.9418 4.59538 32.0682 4.86017 32.235C5.77023 32.769 6.80502 33.0536 7.86017 33.06C8.95607 33.0602 10.0325 32.7704 10.9802 32.22C11.5681 31.8957 12.2287 31.7255 12.9002 31.7255C13.5717 31.7255 14.2322 31.8957 14.8202 32.22C15.7611 32.758 16.8263 33.0411 17.9102 33.0411C18.9941 33.0411 20.0592 32.758 21.0002 32.22C21.5881 31.8957 22.2487 31.7255 22.9202 31.7255C23.5917 31.7255 24.2522 31.8957 24.8402 32.22C25.7699 32.7749 26.8324 33.0679 27.9152 33.0679C28.9979 33.0679 30.0604 32.7749 30.9902 32.22C31.255 32.0532 31.5431 31.9268 31.8452 31.845C32.0448 31.8046 32.2341 31.724 32.4015 31.6081C32.569 31.4922 32.7111 31.3433 32.8192 31.1707C32.9272 30.9981 32.999 30.8053 33.0301 30.604C33.0612 30.4027 33.0511 30.1972 33.0002 30C32.9525 29.797 32.863 29.6062 32.7375 29.4397C32.6119 29.2732 32.453 29.1347 32.2709 29.0331C32.0889 28.9315 31.8876 28.8689 31.68 28.8495C31.4724 28.83 31.263 28.854 31.0652 28.92Z" fill="#78258D"/>
</svg>
